<svg xmlns="http://www.w3.org/2000/svg" width="103" height="24" viewBox="0 0 103 24">
    <path fill="#000" fill-rule="evenodd" d="M47.42 17.528C47.42 20.813 49.275 24 53.8 24c4.82 0 6.675-3.447 6.675-6.472 0-8.032-11.819-4.39-11.819-11.61 0-2.698 1.726-5.333 5.275-5.333 3.353 0 5.47 1.887 5.47 5.171v.553h.65v-.488C60.053 3.09 58.523 0 53.998 0c-4.559 0-5.991 3.545-5.991 5.788 0 3.936 2.605 5.041 6.12 6.147 2.735.878 5.7 1.853 5.7 5.43 0 4.196-2.801 6.05-6.057 6.05-3.647 0-5.698-2.342-5.698-5.887V16.52h-.651v1.008zm23.117 6.082H81.38v-.586H71.189V11.773h9.214v-.586h-9.214V.976h9.93V.39H70.537v23.22zm25.495 0V.976h-6.317V.39H103v.586h-6.317V23.61h-.651zM4.822.39h2.51a27.542 27.542 0 0 0-3.353 4.1l.842-4.1zm1.19 8.574c1.028-2.287 2.535-4.43 4.478-6.368A22.162 22.162 0 0 1 13.065.39h3.972a17.488 17.488 0 0 0-5.078 3.541c-1.462 1.46-2.635 3.058-3.483 4.756-.822 1.643-1.32 3.33-1.48 5.015-.324 3.414.778 6.57 3.1 8.885a9.376 9.376 0 0 0 1.59 1.275H7.579a11.91 11.91 0 0 1-2.161-3.5 12.838 12.838 0 0 1-.895-4.781c0-2.191.502-4.42 1.49-6.617zm-2.27 6.618c0 1.784.32 3.49.951 5.066a12.665 12.665 0 0 0 1.867 3.214H3.076a14.386 14.386 0 0 1-.995-2.013 14.9 14.9 0 0 1-.935-3.567l2.362-11.5C4.664 4.646 6.183 2.632 8.04.781c.133-.131.266-.262.4-.391h3.347a23.055 23.055 0 0 0-1.848 1.657c-2.01 2.005-3.571 4.225-4.638 6.6-1.034 2.297-1.558 4.632-1.558 6.935zm20.045.044a7.36 7.36 0 0 1-2.608 1.693l.253-1.227a5.84 5.84 0 0 0 1.808-1.224c.867-.865 1.392-1.94 1.479-3.028.087-1.096-.267-2.103-1.002-2.835a3.164 3.164 0 0 0-.72-.535l.27-1.311c.53.197 1.003.498 1.403.896a4.245 4.245 0 0 1 1.281 3.062c0 1.516-.768 3.117-2.164 4.509zm.155-3.849c-.072.905-.517 1.808-1.254 2.541-.318.32-.677.59-1.058.81l1.2-5.85c.12.082.232.174.336.276.57.569.846 1.358.776 2.223zm2.789-.66c0-1.378-.522-2.626-1.51-3.61a4.71 4.71 0 0 0-1.798-1.113l.307-1.493c.99.25 1.87.738 2.576 1.444 2.712 2.704 2.199 7.293-1.193 10.675-1.306 1.304-2.848 2.21-4.411 2.623l.296-1.44c1.213-.364 2.37-1.061 3.34-2.028 1.543-1.538 2.393-3.336 2.393-5.059zM1.357 22.137c.238.594.512 1.17.82 1.725H0l.74-3.603c.166.64.372 1.266.617 1.878zm9.91-16.292c.387-.468.8-.924 1.244-1.365 1.981-1.975 4.296-3.35 6.65-4.09h2.19L21.1 1.624c-2.719.395-5.368 1.767-7.5 3.891-.11.11-.217.22-.323.331h-2.009zm14.397 11.725c3.706-3.695 4.22-8.757 1.194-11.774a6.316 6.316 0 0 0-2.97-1.657l.352-1.72c1.534.268 2.931.942 4.034 2.042 1.479 1.475 2.275 3.29 2.348 5.316a9.288 9.288 0 0 1-.092 1.638c-.365 2.493-1.708 5.007-3.786 7.077-1.832 1.828-4.174 3.082-6.533 3.545l.318-1.552c1.824-.4 3.629-1.413 5.135-2.915zm-7.465-8.373a5.794 5.794 0 0 0-.479.427c-1.037 1.034-1.608 2.287-1.608 3.526 0 .566.125 1.105.362 1.583h-1.387a4.643 4.643 0 0 1-.162-1.235c0-1.472.666-3.023 1.837-4.301h1.437zm2.23-4.305l-.196.953h-2.288a9.118 9.118 0 0 1 2.483-.953zm8.396-.98a8.042 8.042 0 0 0-3.343-1.995 9.267 9.267 0 0 0-1.085-.26l.26-1.267h2.277a9.118 9.118 0 0 1 3.315 2.102 9.814 9.814 0 0 1 2.221 3.353h-1.04l-.367 1.789c-.011-.04-.023-.078-.035-.116-.411-1.346-1.153-2.559-2.203-3.606zm4.478 1.933A10.553 10.553 0 0 0 30.8 1.944 9.638 9.638 0 0 0 28.759.39h4.25a12.237 12.237 0 0 1 2.946 5.455h-2.652zM20.597 4.068c-1.433.258-2.836.87-4.096 1.778h-2.126c1.95-1.86 4.278-3.012 6.556-3.406l-.334 1.628zm-2.92 14.231l-.3 1.442a5.97 5.97 0 0 1-2.725-1.447h3.027l-.001.005zm-7.371-3.898c0-1.754.498-3.529 1.44-5.203h1.667c-.893 1.488-1.38 3.124-1.38 4.723 0 .276.014.546.043.813h-1.763a9.969 9.969 0 0 1-.007-.333zm6.911 6.101l-.341 1.635c-1.684-.25-3.164-.979-4.333-2.144a7.405 7.405 0 0 1-1.271-1.7h2.3a6.749 6.749 0 0 0 3.645 2.209zm-9.446-6.726c.249-2.62 1.388-5.27 3.255-7.631l-.622 3.051h.456c-.873 1.68-1.334 3.45-1.334 5.205 0 .112.004.222.007.332H9.26l-.714 3.561h1.851a8.203 8.203 0 0 0 1.596 2.248c1.28 1.276 2.894 2.078 4.725 2.358l-.2.963h-3.18a8.804 8.804 0 0 1-2.69-1.823C8.49 19.89 7.47 16.955 7.77 13.776zm5.04.145c0-1.602.54-3.252 1.521-4.723h1.408a7.924 7.924 0 0 0-1.01 1.667 6.46 6.46 0 0 0-.585 2.634c0 .424.049.838.141 1.235H12.86a6.816 6.816 0 0 1-.049-.813zm7.231 8.936c2.617-.441 5.232-1.797 7.254-3.814a15.53 15.53 0 0 0 1.892-2.28l-.65 3.155c-.08.082-.161.167-.244.25a15.975 15.975 0 0 1-5.84 3.694h-2.618l.206-1.005zm7.685 1.006h-3.293a16.835 16.835 0 0 0 3.827-2.592l-.534 2.592zm5.43-13.778c-.015.307-.04.616-.078.927-.19 1.552-.682 3.11-1.443 4.61h-1.747c.726-1.322 1.21-2.71 1.412-4.094a9.97 9.97 0 0 0 .105-1.443h1.75zM37.722.39c.363.626.68 1.28.95 1.96.441 1.114.75 2.283.926 3.495h-2.842a13.021 13.021 0 0 0-2.71-5.455h3.676zm.893 0h2.247l-.786 3.826A15.797 15.797 0 0 0 38.617.39zm-1.585 10.31c.022-.206.04-.411.053-.616h1.586l-1.12 5.537h-1.797a17.698 17.698 0 0 0 1.278-4.921zm-.728-.616a13.97 13.97 0 0 1-.047.534c-.178 1.683-.637 3.368-1.35 5.003h-2.404c.705-1.472 1.164-2.996 1.351-4.515.042-.344.07-.683.083-1.022h2.367zm-18.031.09a4.917 4.917 0 0 1 1.022-.786l-1.081 5.344h-.835a2.68 2.68 0 0 1-.487-1.582c0-1.032.49-2.089 1.38-2.977z"/>
</svg>
